<svg width="569" height="442" viewBox="0 0 569 442" fill="none" xmlns="http://www.w3.org/2000/svg">
<path fill-rule="evenodd" clip-rule="evenodd" d="M269.508 132.536C253.942 178.17 90.8873 159.77 98.5712 111.533C106.58 61.2541 249.318 74.2595 268.553 115.884C243.895 93.15 128.001 87.1439 121.23 116.335C114.75 144.267 245.821 155.691 269.508 132.536Z" fill="#F59ADB"/>
<path d="M98.5712 111.533L97.5837 111.375H97.5837L98.5712 111.533ZM269.508 132.536L270.454 132.859L268.809 131.821L269.508 132.536ZM268.553 115.884L267.875 116.619L269.461 115.464L268.553 115.884ZM121.23 116.335L120.256 116.109L121.23 116.335ZM97.5837 111.375C95.5553 124.109 104.846 134.623 119.375 142.462C133.972 150.337 154.255 155.758 175.204 158.229C196.158 160.701 217.878 160.235 235.373 156.265C252.783 152.313 266.381 144.8 270.454 132.859L268.561 132.213C264.851 143.089 252.23 150.388 234.93 154.314C217.714 158.221 196.232 158.696 175.438 156.243C154.638 153.789 134.625 148.417 120.324 140.702C105.955 132.95 97.7452 123.075 99.5588 111.69L97.5837 111.375ZM269.461 115.464C264.482 104.691 251.637 95.9508 235.366 89.641C219.041 83.3098 199.039 79.3358 179.408 78.2462C159.784 77.1571 140.448 78.9453 125.473 84.2043C110.523 89.455 99.6712 98.2702 97.5837 111.375L99.5588 111.69C101.476 99.6557 111.47 91.2421 126.136 86.0913C140.779 80.9488 159.83 79.1627 179.297 80.2431C198.755 81.3231 218.545 85.2627 234.643 91.5057C250.796 97.77 263.006 106.265 267.645 116.303L269.461 115.464ZM269.231 115.149C262.86 109.275 250.766 104.592 236.306 101.284C221.793 97.9627 204.715 95.9862 188.205 95.6378C171.704 95.2896 155.71 96.5664 143.386 99.7851C137.225 101.394 131.929 103.501 127.937 106.171C123.942 108.843 121.178 112.131 120.256 116.109L122.204 116.561C122.974 113.241 125.313 110.332 129.049 107.833C132.787 105.333 137.849 103.298 143.891 101.72C155.971 98.5654 171.762 97.2913 188.163 97.6374C204.555 97.9833 221.497 99.9465 235.86 103.233C250.278 106.532 261.917 111.126 267.875 116.619L269.231 115.149ZM120.256 116.109C119.342 120.048 120.9 123.619 124.071 126.716C127.219 129.791 132.041 132.497 137.967 134.836C149.834 139.521 166.453 142.857 183.958 144.588C201.473 146.32 219.947 146.453 235.547 144.695C243.347 143.816 250.453 142.462 256.372 140.587C262.273 138.718 267.084 136.304 270.207 133.251L268.809 131.821C266.01 134.557 261.543 136.851 255.768 138.68C250.011 140.504 243.041 141.838 235.323 142.707C219.889 144.447 201.559 144.319 184.155 142.598C166.741 140.876 150.327 137.566 138.701 132.976C132.88 130.678 128.34 128.09 125.468 125.285C122.618 122.501 121.498 119.605 122.204 116.561L120.256 116.109Z" fill="black"/>
<path d="M264.341 233.449C186.085 233.449 196.19 118.03 211.025 60.3198L358.195 52.8687C359.516 113.062 342.596 233.449 264.341 233.449Z" fill="#F59ADB" stroke="black" stroke-width="2"/>
<path d="M287.19 1C200.512 1 169.713 105.698 276.19 105.698C382.667 105.698 394.547 1 287.19 1Z" fill="#E8E6DF" stroke="black" stroke-width="2"/>
<path fill-rule="evenodd" clip-rule="evenodd" d="M520.95 194.64C520.95 159.902 568 140.554 568 179.69C568 218.825 520.95 227.619 520.95 194.64ZM529.304 193.34C529.304 170.791 557.446 158.232 557.446 183.635C557.446 209.038 529.304 214.747 529.304 193.34Z" fill="#DDFA8A"/>
<path d="M521.95 194.64C521.95 177.718 533.424 164.555 544.817 160.402C550.502 158.33 556.01 158.55 560.068 161.444C564.118 164.334 567 170.086 567 179.69H569C569 169.725 566.001 163.22 561.229 159.816C556.465 156.417 550.21 156.308 544.132 158.523C532 162.945 519.95 176.825 519.95 194.64H521.95ZM567 179.69C567 198.821 555.528 210.387 544.23 213.238C538.571 214.666 533.01 213.903 528.889 210.911C524.79 207.936 521.95 202.637 521.95 194.64H519.95C519.95 203.133 522.991 209.102 527.714 212.53C532.414 215.942 538.616 216.718 544.72 215.178C556.947 212.092 569 199.694 569 179.69H567ZM530.304 193.34C530.304 182.462 537.101 174.062 543.743 171.435C547.047 170.128 550.163 170.294 552.437 172.054C554.729 173.829 556.446 177.438 556.446 183.635H558.446C558.446 177.131 556.646 172.783 553.661 170.473C550.658 168.148 546.739 168.1 543.007 169.575C535.578 172.514 528.304 181.668 528.304 193.34H530.304ZM556.446 183.635C556.446 195.958 549.647 203.287 543.111 205.077C539.838 205.973 536.663 205.487 534.32 203.641C531.984 201.801 530.304 198.473 530.304 193.34H528.304C528.304 198.91 530.142 202.896 533.082 205.212C536.016 207.523 539.877 208.036 543.639 207.006C551.175 204.942 558.446 196.716 558.446 183.635H556.446Z" fill="black"/>
<path d="M356.434 200.553C363.031 114.597 347.639 150.742 443.945 150.742C510.349 150.742 522.36 87.7078 531.896 196.586C535.204 234.35 547.288 262.265 441.306 262.265C345.978 262.265 354.545 225.165 356.434 200.553Z" fill="#DDFA8A" stroke="black" stroke-width="2"/>
<path d="M434.789 93.2114C348.169 93.2114 318.421 192.403 434.789 196.811C551.157 201.22 547.219 98.5016 434.789 93.2114Z" fill="#E8E6DF" stroke="#0D0D0D" stroke-width="2"/>
<path d="M86.5324 339.724C93.5309 354.86 94.989 413.498 94.8432 440.925L184.075 435.205C172.994 399.711 151.619 327.668 154.768 323.444C158.705 318.164 196.322 268.883 180.575 260.083C176.465 257.786 170.908 260.329 164.886 265.497C166.046 259.486 165.496 254.776 162.204 252.603C148.207 243.363 128.524 308.044 111.027 308.484C93.5311 308.924 76.472 276.363 66.849 283.403C57.226 290.443 77.7842 320.804 86.5324 339.724Z" fill="#E8E6DF"/>
<path d="M130.273 311.564C138.034 298.026 152.451 276.168 164.886 265.497M164.886 265.497C170.908 260.329 176.465 257.786 180.575 260.083C196.322 268.883 158.705 318.164 154.768 323.444C151.619 327.668 172.994 399.711 184.075 435.205L94.8432 440.925C94.989 413.498 93.5309 354.86 86.5324 339.724C77.7842 320.804 57.226 290.443 66.849 283.403C76.472 276.363 93.5311 308.924 111.027 308.484C128.524 308.044 148.207 243.363 162.204 252.603C165.496 254.776 166.046 259.486 164.886 265.497Z" stroke="black" stroke-width="2"/>
<path d="M229.025 256.946C229.025 265.41 221.469 378.317 217.691 433.713L301.828 439.003C298.631 381.55 292.499 264.705 293.545 256.946C294.853 247.248 324.497 189.942 313.598 185.093C304.879 181.214 289.621 212.571 283.082 228.734C286.715 211.836 291.801 177.247 283.082 174.073C274.363 170.899 265.499 211.248 262.157 231.82C263.029 212.718 262.331 174.425 252.566 174.073C242.801 173.72 241.813 212.424 242.54 231.82C240.941 213.011 234.693 175.924 222.486 178.04C207.228 180.685 229.025 246.366 229.025 256.946Z" fill="#E8E6DF" stroke="black" stroke-width="2"/>
<path d="M375.314 265.867C375.314 275.363 369.711 372.983 366.909 420.606L434.147 429.398C431.787 388.515 426.361 301.123 423.53 278.616C419.991 250.481 396.989 260.152 394.335 260.152C391.681 260.152 400.97 211.357 385.488 211.357C370.006 211.357 375.314 253.998 375.314 265.867Z" fill="#E8E6DF" stroke="black" stroke-width="2"/>
<path d="M503.964 262.312C503.964 271.8 521.632 374.618 524.437 422.206L461.539 427.477C457.109 383.55 454.162 297.666 455.683 275.051C457.012 255.284 480.703 259.397 483.145 258.359C486.246 257.041 480.931 211.357 496.434 211.357C511.937 211.357 503.964 250.452 503.964 262.312Z" fill="#E8E6DF" stroke="black" stroke-width="2"/>
<path fill-rule="evenodd" clip-rule="evenodd" d="M68.9135 233.776C83.8641 262.358 41.2108 300.614 9.99043 275.99C-21.23 251.365 46.4875 213.549 68.9135 233.776ZM59.6795 243.89C65.3959 255.323 47.3672 282.146 25.8207 268.954C4.27424 255.762 45.1686 227.62 59.6795 243.89Z" fill="#D74545"/>
<path d="M68.9135 233.776L69.7996 233.313L69.7164 233.154L69.5832 233.033L68.9135 233.776ZM9.99043 275.99L10.6097 275.204V275.204L9.99043 275.99ZM59.6795 243.89L60.5739 243.443L60.5144 243.324L60.4258 243.224L59.6795 243.89ZM25.8207 268.954L25.2986 269.807L25.8207 268.954ZM68.0274 234.24C75.1983 247.949 68.6237 264.166 56.1451 274.051C43.7158 283.898 25.7685 287.161 10.6097 275.204L9.37115 276.775C25.4328 289.443 44.4223 285.89 57.387 275.619C70.3025 265.387 77.5793 248.186 69.7996 233.313L68.0274 234.24ZM10.6097 275.204C6.8247 272.219 4.60755 269.089 3.58956 265.966C2.57362 262.85 2.72431 259.656 3.81773 256.487C6.02044 250.102 12.043 243.854 19.8688 238.909C27.6711 233.978 37.1225 230.435 45.975 229.369C54.8521 228.299 62.9429 229.738 68.2437 234.519L69.5832 233.033C63.6711 227.701 54.8874 226.281 45.7359 227.383C36.5597 228.488 26.8281 232.145 18.8004 237.218C10.7961 242.276 4.34147 248.836 1.92707 255.835C0.711941 259.357 0.519101 263 1.68804 266.586C2.85492 270.166 5.35107 273.604 9.37115 276.775L10.6097 275.204ZM58.785 244.337C60.0554 246.878 60.0565 250.407 58.8761 254.186C57.7025 257.945 55.3981 261.818 52.2666 264.949C49.1368 268.079 45.2183 270.432 40.8268 271.227C36.4534 272.019 31.5343 271.28 26.3429 268.101L25.2986 269.807C30.8804 273.225 36.2948 274.08 41.1831 273.195C46.0533 272.313 50.3246 269.72 53.6808 266.363C57.0351 263.009 59.5128 258.857 60.7852 254.783C62.0507 250.73 62.1617 246.618 60.5739 243.443L58.785 244.337ZM26.3429 268.101C23.7759 266.53 22.2174 264.784 21.4035 263.006C20.5932 261.236 20.4831 259.351 20.9523 257.421C21.9028 253.511 25.2333 249.445 29.8085 246.189C34.3621 242.948 39.9987 240.619 45.3373 240.082C50.6702 239.546 55.5847 240.801 58.9332 244.556L60.4258 243.224C56.5188 238.844 50.8799 237.515 45.1373 238.092C39.4003 238.669 33.4392 241.15 28.6487 244.559C23.8797 247.954 20.1196 252.38 19.0089 256.949C18.4476 259.257 18.5642 261.609 19.5849 263.839C20.6021 266.061 22.479 268.081 25.2986 269.807L26.3429 268.101Z" fill="black"/>
<path d="M99.615 293.921C65.6333 295.678 47.212 241.663 42.249 214.436C84.1423 209.02 172.994 204.233 165.739 221.462C155.667 245.382 142.092 291.726 99.615 293.921Z" fill="#D74545" stroke="black" stroke-width="2"/>
<path d="M39.3672 205.559C39.3672 249.71 167.258 274.434 169.022 207.767C170.786 141.099 39.3672 151.695 39.3672 205.559Z" fill="#E8E6DF" stroke="black" stroke-width="2"/>
</svg>
