<svg width="46" height="24" viewBox="0 0 46 24" fill="none" xmlns="http://www.w3.org/2000/svg">
<path d="M2 10.147C15.1535 10.147 28.3071 10.147 41.4606 10.147C42.4917 10.147 41.6947 10.1436 41.1834 9.71745C39.054 7.94263 36.5119 6.61386 34.1907 5.09587C33.1646 4.4248 32.1779 3.70513 31.1719 3.00727C30.9544 2.85641 30.0812 2 29.7857 2C29.663 2 30.1358 2.65748 30.1554 2.68139C30.8525 3.53468 31.8484 4.30488 32.7121 4.97737C36.0017 7.5384 39.5008 9.88383 42.8776 12.3393C43.3605 12.6904 44.3647 13.511 43.8634 12.5467" stroke="#1F1F1F" stroke-width="3" stroke-linecap="round"/>
<path d="M42 10C41.1431 10.4075 28.5145 22.5077 28 21.9834" stroke="#1F1F1F" stroke-width="3" stroke-linecap="round"/>
</svg>
