<svg width="420" height="328" viewBox="0 0 420 328" fill="none" xmlns="http://www.w3.org/2000/svg">
<path d="M340.999 123C374.477 158.637 399.787 221.1 383.611 269.629C376.871 289.849 364.33 307.863 347.814 320.708C346.629 321.629 344.02 325.664 342.514 325.664C341.052 325.664 344.329 316.718 344.441 316.302C346.023 310.451 345.956 304.956 345.956 298.954" stroke="#1F1F1F" stroke-width="3" stroke-linecap="round"/>
<path d="M344.717 326.214C361.914 326.214 378.343 318.78 395.521 318.78" stroke="#1F1F1F" stroke-width="3" stroke-linecap="round"/>
<path d="M4.2049 104.19C7.76418 110.755 11.3235 117.32 14.8827 123.885C16.3395 126.572 21.6263 141.799 24.0393 133.671C26.5553 125.196 25.1045 116.988 24.2013 108.427C23.4468 101.274 25.9844 106.113 26.5772 110.088C27.1884 114.187 39.4813 138.162 42.2337 125.364C44.5946 114.385 46.1642 103.001 48.0221 91.9066C49.1383 85.2413 51.8421 76.8814 50.6531 70.1583" stroke="#1F1F1F" stroke-width="3" stroke-linecap="round"/>
<path d="M52 53.6582C64 60.6582 92.87 58.0065 95.5 39.1582C97.8156 15.4222 92.001 15.4165 82.5 24.1574C75.5487 30.5526 72.2208 38.2496 70.9597 47.5817C66.0255 84.0953 60.8141 86.4743 60.8141 123.501" stroke="#1F1F1F" stroke-width="3" stroke-linecap="round"/>
<path d="M101.714 105.158C112.13 105.158 122 88.8987 122 84.4968C121.861 81.2184 118.377 77.7548 116.239 78.1885C109.11 79.6342 105.806 86.8345 104.5 90.1582C102.732 94.6543 102.436 97.6586 101.988 102.463C101.755 104.966 101.007 109.16 102.789 111.337C103.953 112.759 105.79 113.143 107.532 113.155C113.311 113.196 119.355 112.807 124.728 110.558C138.544 104.774 151.12 95.7848 158.059 82.1807C159.362 79.6259 162.113 71.8504 159.033 69.3882C157.246 67.9589 154.285 69.8372 153.186 71.1415C150.35 74.5067 148.099 80.2451 147.035 84.4968C146.111 88.192 145.811 93.9232 147.577 97.3759C149.957 102.031 152.931 102.729 158.037 102.636C171.177 102.397 181.553 91.3456 188.92 81.6396C194.079 74.8428 200.713 66.4033 201.828 57.613C202.175 54.876 199.3 55.7682 197.778 56.9204C192.631 60.8176 189.061 68.7453 186.906 74.6481C184.287 81.8235 182.75 93.8075 194.14 91.9861C198.994 91.2099 203.599 88.4482 207.719 85.9254C213.099 82.6306 218.526 78.8416 222.576 73.9338C226.576 69.0854 228.605 62.4543 228.358 56.1628C228.254 53.5151 225.391 53.1397 223.355 54.4961C220.536 56.3746 220.421 61.4943 220.063 64.453C219.391 70.023 219.366 75.6925 219.457 81.2932C219.486 83.0578 219.493 85.4695 220.821 86.8345C222.841 88.9089 226.612 89.8072 229.354 88.999C233.206 87.8638 236.395 84.9358 239.122 82.1158C244.847 76.1946 250.021 69.7043 254.455 62.7647C256.849 59.0181 259.096 54.9995 260.476 50.7514C260.918 49.3894 261.55 47.2799 261.126 45.7946C260.73 44.4117 254.258 45.6765 253.459 45.9244C247.457 47.7861 244.654 53.4044 243.302 59.1499C242.013 64.6253 241.992 70.3735 242.067 75.9684C242.102 78.5652 244.114 79.7589 246.204 81.0118C252.369 84.7088 260.181 83.5915 266.497 80.7304C272.155 78.1671 279.554 74.9291 282.999 69.5181" stroke="#1F1F1F" stroke-width="3" stroke-linecap="round"/>
<path d="M62.1982 103.558C62.1982 97.0133 65.876 91.3582 69.5678 86.156C71.0122 84.1208 75.903 76.849 79.3481 79.2456C82.6041 81.5107 82.9755 88.8681 83.2739 92.3548C83.8155 98.6822 76.0761 107.772 80 113.658C84.5346 120.46 93 110.158 102 105.158" stroke="#1F1F1F" stroke-width="3" stroke-linecap="round"/>
<path d="M290.595 43.1332C298.767 40.6363 305.5 32.5057 310.18 25.7284C313.107 21.4881 319.822 10.2546 316.962 4.79435C314.322 -0.243901 308.709 2.40321 306.304 5.90161C303.523 9.94639 302.694 15.2382 301.149 19.8115C298.517 27.5954 295.401 35.2214 292.948 43.064C291.382 48.0713 288.805 56.8798 290.941 62.3718C291.775 64.5165 292.428 69.4973 295.301 69.8804C297.35 70.1536 299.127 68.8418 300.629 67.6312C304.866 64.2187 309.067 60.7501 313.294 57.3199C314.188 56.5941 326.842 46.6203 324.851 45.6245" stroke="#1F1F1F" stroke-width="3" stroke-linecap="round"/>
<path d="M386.839 27.7293C380.473 27.7293 374.203 25.6005 374.021 33.7821C373.803 43.5837 375.092 50.4373 385.949 53.0086C402.373 56.8985 417.083 32.6579 417.281 18.8281C417.515 2.42258 396.066 5.29841 387.907 14.1105C382.496 19.9541 378.088 32.1661 386.839 36.5415C394.615 40.4295 406.282 43.9254 413.186 36.3634C421.188 27.5999 418.271 12.0213 404.463 15.0896C396.088 16.9509 396.452 30.658 396.452 37.3426" stroke="#D74545" stroke-width="3" stroke-linecap="round"/>
<path d="M298.575 172.818C297.999 172.674 297.72 170.998 297.572 170.612C296.301 167.311 294.94 164.043 293.88 160.665C292.43 156.046 291.672 150.298 292.676 145.463C294.037 138.902 300.487 128.555 307.684 135.074C314.845 141.561 314.361 150.897 310.573 159.02C308.779 162.867 306.839 166.816 304.714 170.492C304.263 171.273 303.034 175.026 301.986 175.325C301.176 175.556 301.103 175.091 301.103 174.443C301.103 173.439 302.281 173.36 302.929 172.778C305.207 170.729 306.885 168.198 308.928 165.939C312.82 161.635 318.226 157.813 324.136 157.376C330.676 156.891 336.488 156.766 341.271 161.547C342.776 163.051 347.036 168.141 343.839 169.93C341.627 171.169 338.576 171.454 336.115 171.916C331.552 172.771 326.876 173.32 322.25 173.7C317.135 174.122 312.242 174.543 307.222 173.54C306.752 173.446 304.541 173.206 304.373 172.618C304.078 171.584 308.473 172.259 308.807 172.297C318.562 173.397 331.205 174.656 338.221 182.565C339.79 184.333 341.824 187.586 339.746 189.785C338.268 191.349 336.52 191.587 334.61 192.392C331.444 193.727 328.221 194.815 324.959 195.902C319.047 197.871 312.096 196.149 307.082 192.653C302.298 189.317 300.261 184.45 297.411 179.597C297.204 179.244 295.67 176.319 296.488 177.511C297.589 179.116 298.322 181.086 298.936 182.926C300.999 189.113 302.422 195.769 301.745 202.339C300.753 211.955 286.708 215.421 280.878 207.975C273.753 198.874 278.641 187.565 286.737 180.76C288.339 179.413 289.669 177.775 291.271 176.428C292.198 175.649 293.013 174.352 294.321 174.262C295.21 174.201 297.861 173.901 296.97 173.901C295.216 173.901 293.28 174.563 291.532 174.824C284.51 175.869 277.532 175.858 271.849 170.953C268.287 167.877 266.042 163.905 263.764 159.842C262.488 157.568 260.73 154.3 261.035 151.559C261.183 150.231 263.458 149.27 264.426 148.651C265.699 147.837 267.111 147.764 268.599 147.929C270.026 148.088 271.258 148.946 272.411 149.714C273.451 150.408 274.931 150.789 275.822 151.68C278.266 154.123 281.054 155.97 283.487 158.458C285.582 160.602 287.422 163.156 289.747 165.057C292.058 166.947 294.602 170.458 294.602 173.54" stroke="#F59ADB" stroke-width="3" stroke-linecap="round"/>
</svg>
