<svg width="290" height="290" viewBox="0 0 290 290" fill="none" xmlns="http://www.w3.org/2000/svg">
<rect width="290" height="290" fill="white"/>
<path d="M127.911 139.115C123.638 127.958 119.059 116.913 115.494 105.496C110.62 89.8861 108.071 70.4623 111.445 54.1193C116.024 31.9461 137.717 -3.02188 161.921 19.0096C186.006 40.9331 184.379 72.4853 171.638 99.9381C165.603 112.941 159.08 126.285 151.934 138.708C151.58 139.323 151.085 140.482 150.488 141.912C155.997 135.981 160.667 129.365 166.105 123.322C179.194 108.776 195.071 79.3888 214.95 77.9098C236.944 76.2734 256.491 75.8499 272.578 92.0079C277.638 97.0905 291.967 114.292 281.215 120.34C273.774 124.525 263.512 125.491 255.235 127.05C239.89 129.94 225.334 136.182 209.811 142.391C194.737 143.638 181.082 150.384 166.577 149.755C167.305 150.035 167.801 150.212 167.964 150.23C200.771 153.951 241.028 152.783 264.626 179.511C269.9 185.485 276.742 196.48 269.755 203.912C264.784 209.198 258.904 210.001 252.48 212.723C241.831 217.235 230.993 220.911 220.022 224.584C200.138 231.241 176.759 225.421 159.896 213.604C145.568 203.563 138.566 189.42 130.434 174.858C131.178 176.825 131.858 178.799 132.499 180.731C139.439 201.641 144.226 224.137 141.947 246.341C138.611 278.84 91.375 290.553 71.7667 265.387C47.8027 234.631 64.2435 196.408 91.471 173.411C96.8602 168.859 101.332 163.322 106.722 158.771C107.661 157.977 109.703 155.469 112.174 152.475C110.622 152.815 109.09 153.125 107.599 153.348C83.9809 156.881 60.5113 156.845 41.4004 140.267C29.4179 129.872 21.8695 116.448 14.2057 102.717C9.91507 95.0295 4.00364 83.9877 5.02839 74.7242C5.52515 70.2336 13.1794 66.9875 16.4326 64.8962C20.7135 62.1443 25.4628 61.8975 30.4686 62.4561C35.2695 62.9919 39.4127 65.8922 43.2899 68.4885C46.7882 70.831 51.7644 72.1204 54.7616 75.1309C62.9823 83.388 72.358 89.6318 80.5392 98.0403C87.5867 105.284 97.2158 109.578 105.033 116.002C112.805 122.39 120.149 126.696 127.911 139.115Z" fill="#F59ADB"/>
<path d="M153.93 153.257C158.586 162.57 152.146 174.989 142.288 174.989C132.429 174.989 117.451 163.116 117.451 153.257C117.451 143.398 130.1 131.525 139.959 131.525C149.818 131.525 150.825 142.391 153.93 153.257Z" fill="#DDFA8A"/>
</svg>
