<svg width="291" height="351" viewBox="0 0 291 351" fill="none" xmlns="http://www.w3.org/2000/svg">
<path d="M29.2085 128.785C26.5968 125.521 21.7753 129.001 19.2282 130.613C11.6451 135.412 10.0828 147.284 12.8358 155.13C17.2982 167.849 18.4638 171.947 25.6149 183.247C28.8255 188.32 43.0936 190.499 47.9686 185.482C54.7972 178.454 55.2283 164.072 57.1851 155.13C58.5903 148.709 61.9117 140.272 58.0346 134.146C55.4897 130.125 55.9186 130.567 57.354 134.909C59.0138 139.931 60.2348 144.715 63.0927 149.23C69.5367 159.413 82.9881 143.438 84.3008 135.725C85.593 128.132 79.6838 117.996 81.9647 130.721C85.0975 148.198 84.5304 163.417 95.2413 178.753C99.5072 184.861 103.606 164.083 103.846 162.669C104.928 156.283 107.645 147.874 106.064 141.484" stroke="#1F1F1F" stroke-width="3" stroke-linecap="round"/>
<path d="M109.85 141.729C117.878 136.648 137.913 127.322 126.503 116.561C122.623 112.902 115.367 118.065 112.45 120.884C108.375 124.821 107.247 134.761 107.667 140.118C108.285 148.005 115.323 170.975 124.48 159.067C128.877 153.348 131.806 145.326 137.501 140.769C139.323 139.311 140.074 138.694 141.179 136.862" stroke="#1F1F1F" stroke-width="3" stroke-linecap="round"/>
<path d="M182.071 57.2544C181.243 57.936 185.716 76.0748 185.931 77.6681C187.813 91.6801 190.277 105.699 192.629 119.64C192.945 121.513 194.025 138.425 197.17 139.291C204.442 141.294 214.72 104.097 217.092 97.0941" stroke="#1F1F1F" stroke-width="3" stroke-linecap="round"/>
<path d="M158.541 109.636C156.922 105.107 151.244 106.425 148.395 109.023C140.506 116.22 140.686 126.978 142.452 136.486C143.271 140.9 144.789 146.488 147.173 150.378C148.297 152.212 149.968 151.071 151.615 150.482C158.099 148.164 162.72 141.174 164.655 134.986C166.691 128.471 166.73 121.849 165.958 115.181C165.506 111.283 164.221 99.6318 164.105 103.56C163.817 113.275 167.007 122.977 170.169 132.025C170.794 133.813 171.2 136.274 173.125 137.165C175.608 138.313 177.9 133.233 178.755 131.899C182.877 125.466 185.181 118.949 187.051 111.704" stroke="#1F1F1F" stroke-width="3" stroke-linecap="round"/>
<path d="M174.511 94.9517L239.672 53.7132" stroke="#1F1F1F" stroke-width="3" stroke-linecap="round"/>
<path d="M230.051 102.956C237.065 100.771 249.898 91.1451 246.81 86.2658C244.043 81.8946 239.222 83.381 234.983 85.4391C227.358 89.1416 225.533 100.859 224.228 108.37C222.826 116.44 222.091 124.24 222.994 132.423C223.673 138.579 225.257 150.052 230.384 154.343C237.214 160.059 247.584 141.305 249.983 138.033C252.29 134.885 272.393 107.797 270.662 107.408" stroke="#1F1F1F" stroke-width="3" stroke-linecap="round"/>
<path d="M287.543 38.1657C289.816 35.8904 290.163 32.7189 286.096 34.5722C283.805 35.6165 281.059 37.7297 283.395 40.0631C284.703 41.3693 288.322 39.4905 288.53 37.7083C288.628 36.87 283.61 39.7014 287.241 38.4681" stroke="#DDFA8A" stroke-width="3" stroke-linecap="round"/>
<path d="M261.721 14.4154C261.297 13.9319 261.784 14.202 262.263 13.8893C263.503 13.0809 264.057 11.8366 264.046 10.3682C264.024 7.48297 261.196 -0.369718 257.681 2.59408C254.245 5.49214 252.251 8.33696 252.93 13.036C253.398 16.2736 254.414 16.9289 257.087 15.3151C258.189 14.6497 262.343 12.3282 261.759 10.5659C261.225 8.95128 260.45 6.49275 258.717 8.01215C257.46 9.1141 256.747 14.3171 259.482 13.466C261.229 12.9226 260.229 7.5764 259.285 7.5144" stroke="#DDFA8A" stroke-width="3" stroke-linecap="round"/>
<path d="M182.955 195.138C190 247 170.752 283.293 133.862 307.592C115.224 319.869 97.9772 319.986 76.7644 324.157C75.4207 324.421 83.6708 326.457 85.7681 327.036C88.0477 327.666 114.016 334.876 113.015 338.5C111.837 342.766 88.149 330.159 86.8632 329.102C81.8219 324.961 81.2364 326.074 86.8087 322.914C97.668 316.755 107.031 299.29 113.015 288.703" stroke="#1F1F1F" stroke-width="3" stroke-linecap="round"/>
</svg>
